<svg width="1791" height="86" viewBox="0 0 1791 86" fill="none" xmlns="http://www.w3.org/2000/svg">
<path fill-rule="evenodd" clip-rule="evenodd" d="M0 21.585L74.7666 18.0158C149.533 14.4466 298.217 7.3083 447.75 9.00791C597.283 10.8775 745.967 21.585 895.5 34.1621C1045.03 46.5692 1193.72 61.0158 1343.25 55.5771C1492.78 50.1383 1641.47 25.1542 1716.23 12.5771L1791 0V86H1716.23C1641.47 86 1492.78 86 1343.25 86C1193.72 86 1045.03 86 895.5 86C745.967 86 597.283 86 447.75 86C298.217 86 149.533 86 74.7666 86H0V21.585Z" fill="white"/>
</svg>
