<?xml version="1.0" encoding="utf-8"?>
<!-- Generator: Adobe Illustrator 24.0.0, SVG Export Plug-In . SVG Version: 6.00 Build 0)  -->
<svg version="1.1"
	 id="svg2" xmlns:cc="http://creativecommons.org/ns#" xmlns:dc="http://purl.org/dc/elements/1.1/" xmlns:rdf="http://www.w3.org/1999/02/22-rdf-syntax-ns#" xmlns:svg="http://www.w3.org/2000/svg"
	 xmlns="http://www.w3.org/2000/svg" xmlns:xlink="http://www.w3.org/1999/xlink" x="0px" y="0px" viewBox="0 0 47.5 47.5"
	 style="enable-background:new 0 0 47.5 47.5;" xml:space="preserve">
<style type="text/css">
	.st0{clip-path:url(#SVGID_2_);}
	.st1{fill:#A6D388;}
	.st2{fill:#FFFFFF;}
</style>
<g id="g10" transform="matrix(1.25,0,0,-1.25,0,47.5)">
	<g id="g12">
		<g>
			<defs>
				<rect id="SVGID_1_" x="-4.8" y="-4.8" width="47.5" height="47.5"/>
			</defs>
			<clipPath id="SVGID_2_">
				<use xlink:href="#SVGID_1_"  style="overflow:visible;"/>
			</clipPath>
			<g id="g14" class="st0">
				<g id="g20" transform="translate(7.4014,8.4502)">
					<path id="path22" class="st1" d="M0,0c5-5,16.5-12,29.5,0.1c-7.4,1.4-8.7,10.8-13.7,15.8c-5,5-12,6.1-17,1.1C-6.1,12-5,5,0,0"
						/>
				</g>
				<g id="g24" transform="translate(25.6836,7.1904)">
					<path id="path26" class="st2" d="M0,0c6.1-1.6,10.7,0.7,11.1,1.2c0,0-3.8-1.8-10.4,1.5c1,1.2,3.9,2.9,3.9,2.9
						C4,5.9,0.5,5.8-1.9,4.1c-1.2,0.7-2.4,1.6-3.7,2.7l0.8,0.9c3.2,3.4,6.9,2.6,6.9,2.6c-0.6,0.6-5.6,3.4-9.6-0.7L-8,8.9
						c-0.4,0.4-0.9,0.8-1.3,1.2l-1.9,1.9l1.1,1.1c3.3,3.3,8.2,3.5,8.2,3.5c-0.6,0.6-6.9,2.6-10.9-1.4l-0.7-0.7l-8.3,8.3
						c-0.6,0.6-1.7,0.6-2.3-0.1c-0.6-0.6-0.7-1.7-0.1-2.3l8.3-8.3l-0.1-0.1C-20,7.9-18.3,1.3-17.7,0.7c0,0,0.5,5.2,3.8,8.6l0.4,0.4
						l3.5-3.5C-10,6.1-9.9,6-9.8,6c-2.4-4.8,1.2-10.3,2-10.8c0,0-1.5,4.7,0.5,8.6c1.5-1.2,3-2.1,4.5-2.8c0.1-3,2.7-5.7,3.3-5.9
						c0,0-0.9,3-0.5,4.5L0,0z"/>
				</g>
				<g id="g28" transform="translate(23.083,26.9995)">
					<path id="path30" class="st2" d="M0,0c-0.4,0-0.8,0.2-0.9,0.6c-0.2,0.5,0,1.1,0.6,1.3C-0.2,2,3.6,3.6,4,8.1
						C4.1,8.6,4.6,9,5.1,9c0.6-0.1,1-0.5,0.9-1.1C5.5,2.2,0.6,0.2,0.4,0.1C0.3,0,0.1,0,0,0"/>
				</g>
				<g id="g32" transform="translate(28.083,22.9995)">
					<path id="path34" class="st2" d="M0,0c-0.4,0-0.8,0.3-0.9,0.7c-0.2,0.5,0.1,1.1,0.6,1.3C-0.1,2,4.2,3.7,5,10.1
						c0.1,0.5,0.6,0.9,1.1,0.9c0.5-0.1,0.9-0.6,0.9-1.1C6,2.1,0.6,0.1,0.3,0.1C0.2,0,0.1,0,0,0"/>
				</g>
				<g id="g36" transform="translate(31.084,17)">
					<path id="path38" class="st2" d="M0,0c-0.4,0-0.7,0.2-0.9,0.5C-1.1,1-1,1.6-0.5,1.9c0,0,2.8,1.5,3.6,3.5
						c0.2,0.5,0.8,0.7,1.3,0.5C4.9,5.7,5.2,5.1,5,4.6C3.8,2,0.6,0.2,0.5,0.1C0.3,0,0.2,0,0,0"/>
				</g>
			</g>
		</g>
	</g>
</g>
</svg>
