<svg width="101" height="97" viewBox="0 0 101 97" fill="none" xmlns="http://www.w3.org/2000/svg">
<path d="M58.0748 73.4002L87.967 43.5081C82.9377 41.4083 78.3703 38.3405 74.5244 34.479C70.6611 30.6322 67.5918 26.0633 65.4912 21.0324L35.5991 50.9245C33.267 53.2566 32.099 54.4246 31.0967 55.7099C29.9129 57.2266 28.8978 58.8678 28.0695 60.6043C27.3703 62.0755 26.8489 63.6436 25.8061 66.7719L20.3014 83.274C20.048 84.0296 20.0104 84.8409 20.1928 85.6166C20.3752 86.3924 20.7704 87.1019 21.3339 87.6654C21.8974 88.2289 22.6069 88.6241 23.3827 88.8065C24.1585 88.9889 24.9697 88.9513 25.7253 88.6979L42.2274 83.1932C45.3597 82.1504 46.9238 81.6291 48.395 80.9299C50.1329 80.1013 51.7738 79.0869 53.2895 77.9026C54.5747 76.9003 55.7427 75.7323 58.0748 73.4002ZM96.2605 35.2146C99.2409 32.2341 100.915 28.1917 100.915 23.9767C100.915 19.7617 99.2409 15.7193 96.2605 12.7389C93.28 9.75839 89.2376 8.08398 85.0226 8.08398C80.8076 8.08398 76.7652 9.75839 73.7847 12.7389L70.1998 16.3238L70.3534 16.7724C72.12 21.8274 75.011 26.4155 78.8085 30.1908C82.6967 34.1019 87.4454 37.0499 92.6755 38.7995L96.2605 35.2146Z" fill="#40BF00"/>
<path d="M46.0748 73.4002L75.967 43.5081C70.9377 41.4083 66.3703 38.3405 62.5244 34.479C58.6611 30.6322 55.5918 26.0633 53.4912 21.0324L23.5991 50.9245C21.267 53.2566 20.099 54.4246 19.0967 55.7099C17.9129 57.2266 16.8978 58.8678 16.0695 60.6043C15.3703 62.0755 14.8489 63.6436 13.8061 66.7719L8.30138 83.274C8.04802 84.0296 8.01043 84.8409 8.19283 85.6166C8.37523 86.3924 8.7704 87.1019 9.33391 87.6654C9.89741 88.2289 10.6069 88.6241 11.3827 88.8065C12.1585 88.9889 12.9697 88.9513 13.7253 88.6979L30.2274 83.1932C33.3597 82.1504 34.9238 81.6291 36.395 80.9299C38.1329 80.1013 39.7738 79.0869 41.2895 77.9026C42.5747 76.9003 43.7427 75.7323 46.0748 73.4002ZM84.2605 35.2146C87.2409 32.2341 88.9153 28.1917 88.9153 23.9767C88.9153 19.7617 87.2409 15.7193 84.2605 12.7389C81.28 9.75839 77.2376 8.08398 73.0226 8.08398C68.8076 8.08398 64.7652 9.75839 61.7847 12.7389L58.1998 16.3238L58.3534 16.7724C60.12 21.8274 63.011 26.4155 66.8085 30.1908C70.6967 34.1019 75.4454 37.0499 80.6755 38.7995L84.2605 35.2146Z" fill="white"/>
</svg>
