<svg width="101" height="97" viewBox="0 0 101 97" fill="none" xmlns="http://www.w3.org/2000/svg">
<path d="M58.0748 73.4007L87.967 43.5086C82.9377 41.4088 78.3703 38.341 74.5244 34.4795C70.6611 30.6327 67.5918 26.0638 65.4912 21.0328L35.5991 50.925C33.267 53.2571 32.099 54.4251 31.0967 55.7103C29.9129 57.2271 28.8978 58.8682 28.0695 60.6048C27.3703 62.076 26.8489 63.6441 25.8061 66.7724L20.3014 83.2745C20.048 84.0301 20.0104 84.8413 20.1928 85.6171C20.3752 86.3929 20.7704 87.1024 21.3339 87.6659C21.8974 88.2294 22.6069 88.6246 23.3827 88.807C24.1585 88.9894 24.9697 88.9518 25.7253 88.6984L42.2274 83.1937C45.3597 82.1509 46.9238 81.6296 48.395 80.9303C50.1329 80.1018 51.7738 79.0873 53.2895 77.9031C54.5747 76.9008 55.7427 75.7328 58.0748 73.4007ZM96.2605 35.2151C99.2409 32.2346 100.915 28.1922 100.915 23.9772C100.915 19.7622 99.2409 15.7198 96.2605 12.7393C93.28 9.75888 89.2376 8.08447 85.0226 8.08447C80.8076 8.08447 76.7652 9.75888 73.7847 12.7393L70.1998 16.3243L70.3534 16.7729C72.12 21.8279 75.0111 26.4159 78.8085 30.1913C82.6967 34.1024 87.4454 37.0504 92.6755 38.8L96.2605 35.2151Z" fill="#AFE893"/>
<path d="M46.0748 73.4007L75.967 43.5086C70.9377 41.4088 66.3703 38.341 62.5244 34.4795C58.6611 30.6327 55.5918 26.0638 53.4912 21.0328L23.5991 50.925C21.267 53.2571 20.099 54.4251 19.0967 55.7103C17.9129 57.2271 16.8978 58.8682 16.0695 60.6048C15.3703 62.076 14.8489 63.6441 13.8061 66.7724L8.30138 83.2745C8.04802 84.0301 8.01043 84.8413 8.19283 85.6171C8.37523 86.3929 8.7704 87.1024 9.33391 87.6659C9.89741 88.2294 10.6069 88.6246 11.3827 88.807C12.1585 88.9894 12.9697 88.9518 13.7253 88.6984L30.2274 83.1937C33.3597 82.1509 34.9238 81.6296 36.395 80.9303C38.1329 80.1018 39.7738 79.0873 41.2895 77.9031C42.5747 76.9008 43.7427 75.7328 46.0748 73.4007ZM84.2605 35.2151C87.2409 32.2346 88.9153 28.1922 88.9153 23.9772C88.9153 19.7622 87.2409 15.7198 84.2605 12.7393C81.28 9.75888 77.2376 8.08447 73.0226 8.08447C68.8076 8.08447 64.7652 9.75888 61.7847 12.7393L58.1998 16.3243L58.3534 16.7729C60.12 21.8279 63.0111 26.4159 66.8085 30.1913C70.6967 34.1024 75.4454 37.0504 80.6755 38.8L84.2605 35.2151Z" fill="#2E7A48"/>
</svg>
