<svg width="109" height="97" viewBox="0 0 109 97" fill="none" xmlns="http://www.w3.org/2000/svg">
<g clip-path="url(#clip0_2546_7132)">
<path d="M45.3155 29.6658L19.5297 33.4043L19.073 33.4973C18.3816 33.6808 17.7514 34.0445 17.2465 34.5513C16.7417 35.0581 16.3805 35.6898 16.1996 36.3819C16.0188 37.074 16.0249 37.8017 16.2173 38.4906C16.4097 39.1796 16.7815 39.8052 17.2947 40.3034L35.9753 58.4869L31.5698 84.1717L31.5173 84.6163C31.475 85.3313 31.6235 86.0448 31.9475 86.6836C32.2716 87.3224 32.7596 87.8636 33.3617 88.2518C33.9637 88.64 34.658 88.8612 35.3736 88.8928C36.0893 88.9244 36.8004 88.7652 37.4343 88.4316L60.496 76.3066L83.5052 88.4316L83.9094 88.6175C84.5765 88.8803 85.3016 88.9609 86.0101 88.851C86.7186 88.7411 87.3852 88.4446 87.9414 87.9921C88.4975 87.5396 88.9233 86.9473 89.175 86.2759C89.4268 85.6046 89.4953 84.8783 89.3737 84.1717L84.9643 58.4869L103.653 40.2994L103.968 39.9558C104.419 39.4012 104.714 38.7371 104.824 38.0312C104.934 37.3253 104.855 36.6028 104.595 35.9373C104.335 35.2719 103.903 34.6873 103.344 34.243C102.784 33.7988 102.117 33.5108 101.41 33.4083L75.624 29.6658L64.0972 6.30493C63.7636 5.62809 63.2473 5.05814 62.6066 4.65959C61.9659 4.26104 61.2264 4.0498 60.4718 4.0498C59.7172 4.0498 58.9777 4.26104 58.337 4.65959C57.6963 5.05814 57.18 5.62809 56.8464 6.30493L45.3155 29.6658Z" fill="#40BF00"/>
</g>
<g clip-path="url(#clip1_2546_7132)">
<path d="M33.3155 29.6658L7.52972 33.4043L7.07301 33.4973C6.38164 33.6808 5.75136 34.0445 5.24655 34.5513C4.74173 35.0581 4.38046 35.6898 4.19963 36.3819C4.0188 37.074 4.02489 37.8017 4.21728 38.4906C4.40966 39.1796 4.78145 39.8052 5.29467 40.3034L23.9753 58.4869L19.5698 84.1717L19.5173 84.6163C19.475 85.3313 19.6235 86.0448 19.9475 86.6836C20.2716 87.3224 20.7596 87.8636 21.3617 88.2518C21.9637 88.64 22.658 88.8612 23.3736 88.8928C24.0893 88.9244 24.8004 88.7652 25.4343 88.4316L48.496 76.3066L71.5052 88.4316L71.9094 88.6175C72.5765 88.8803 73.3016 88.9609 74.0101 88.851C74.7186 88.7411 75.3852 88.4446 75.9414 87.9921C76.4975 87.5396 76.9233 86.9473 77.175 86.2759C77.4268 85.6046 77.4953 84.8783 77.3737 84.1717L72.9643 58.4869L91.653 40.2994L91.9682 39.9558C92.4185 39.4012 92.7138 38.7371 92.8239 38.0312C92.934 37.3253 92.855 36.6028 92.595 35.9373C92.335 35.2719 91.9032 34.6873 91.3437 34.243C90.7842 33.7988 90.1169 33.5108 89.4098 33.4083L63.624 29.6658L52.0972 6.30493C51.7636 5.62809 51.2473 5.05814 50.6066 4.65959C49.9659 4.26104 49.2264 4.0498 48.4718 4.0498C47.7172 4.0498 46.9777 4.26104 46.337 4.65959C45.6963 5.05814 45.18 5.62809 44.8464 6.30493L33.3155 29.6658Z" fill="white"/>
</g>
<defs>
<clipPath id="clip0_2546_7132">
<rect width="97" height="97" fill="white" transform="translate(12)"/>
</clipPath>
<clipPath id="clip1_2546_7132">
<rect width="97" height="97" fill="white"/>
</clipPath>
</defs>
</svg>
