<svg width="62" height="104" viewBox="0 0 62 104" fill="none" xmlns="http://www.w3.org/2000/svg">
<g clip-path="url(#clip0_3384_8308)">
<path d="M17.2046 13.938C11.0278 13.938 6.00586 19.314 6.00586 25.9263V55.897V85.8677C6.00586 92.48 11.0278 97.856 17.2046 97.856H56.4002C59.4974 97.856 61.9996 95.1773 61.9996 91.8618C61.9996 88.5463 59.4974 85.8677 56.4002 85.8677H17.2046V61.8911H45.2015C48.2986 61.8911 50.8009 59.2125 50.8009 55.897C50.8009 52.5815 48.2986 49.9028 45.2015 49.9028H17.2046V25.9263H56.4002C59.4974 25.9263 61.9996 23.2476 61.9996 19.9321C61.9996 16.6166 59.4974 13.938 56.4002 13.938H17.2046Z" fill="#AFE893"/>
</g>
<g clip-path="url(#clip1_3384_8308)">
<path d="M12.4 6.2002C5.56062 6.2002 0 11.7608 0 18.6002V49.6002V80.6002C0 87.4396 5.56062 93.0002 12.4 93.0002H55.8C59.2294 93.0002 62 90.2296 62 86.8002C62 83.3708 59.2294 80.6002 55.8 80.6002H12.4V55.8002H43.4C46.8294 55.8002 49.6 53.0296 49.6 49.6002C49.6 46.1708 46.8294 43.4002 43.4 43.4002H12.4V18.6002H55.8C59.2294 18.6002 62 15.8296 62 12.4002C62 8.97082 59.2294 6.2002 55.8 6.2002H12.4Z" fill="#2E7A48"/>
</g>
<defs>
<clipPath id="clip0_3384_8308">
<rect width="55.9937" height="95.9062" fill="white" transform="translate(6.00586 7.94385)"/>
</clipPath>
<clipPath id="clip1_3384_8308">
<rect width="62" height="99.2" fill="white"/>
</clipPath>
</defs>
</svg>
