<svg width="88" height="97" viewBox="0 0 88 97" fill="none" xmlns="http://www.w3.org/2000/svg">
<path d="M54.9917 9.79473C53.9964 7.54023 51.6199 6.0625 48.9996 6.0625C46.3792 6.0625 44.0027 7.54023 43.0074 9.79473L18.6324 64.3572L10.5074 82.5447C9.12613 85.6328 10.6902 89.1756 14.0011 90.4639C17.3121 91.7522 21.1105 90.2934 22.4918 87.2053L28.9511 72.75H69.048L75.5074 87.2053C76.8886 90.2934 80.6871 91.7522 83.998 90.4639C87.3089 89.1756 88.873 85.6328 87.4917 82.5447L79.3667 64.3572L54.9917 9.79473ZM63.6246 60.625H34.3746L48.9996 27.8875L63.6246 60.625Z" fill="#40BF00"/>
<path d="M45.5685 9.79473C44.5604 7.54023 42.1534 6.0625 39.4995 6.0625C36.8456 6.0625 34.4386 7.54023 33.4305 9.79473L8.74298 64.3572L0.513819 82.5447C-0.885139 85.6328 0.698976 89.1756 4.05236 90.4639C7.40575 91.7522 11.2529 90.2934 12.6518 87.2053L19.194 72.75H59.805L66.3471 87.2053C67.7461 90.2934 71.5932 91.7522 74.9466 90.4639C78.3 89.1756 79.8841 85.6328 78.4852 82.5447L70.256 64.3572L45.5685 9.79473ZM54.312 60.625H24.687L39.4995 27.8875L54.312 60.625Z" fill="white"/>
</svg>
