<svg width="89" height="97" viewBox="0 0 89 97" fill="none" xmlns="http://www.w3.org/2000/svg">
<g clip-path="url(#clip0_2611_6426)">
<path d="M55.9253 9.79473C54.93 7.54023 52.5535 6.0625 49.9332 6.0625C47.3128 6.0625 44.9363 7.54023 43.941 9.79473L19.566 64.3572L11.441 82.5447C10.0597 85.6328 11.6238 89.1756 14.9347 90.4639C18.2457 91.7522 22.0441 90.2934 23.4253 87.2053L29.8847 72.75H69.9816L76.441 87.2053C77.8222 90.2934 81.6207 91.7522 84.9316 90.4639C88.2425 89.1756 89.8066 85.6328 88.4253 82.5447L80.3003 64.3572L55.9253 9.79473ZM64.5582 60.625H35.3082L49.9332 27.8875L64.5582 60.625Z" fill="#AFE893"/>
</g>
<g clip-path="url(#clip1_2611_6426)">
<path d="M46.5021 9.79473C45.494 7.54023 43.087 6.0625 40.4331 6.0625C37.7792 6.0625 35.3721 7.54023 34.3641 9.79473L9.67658 64.3572L1.44741 82.5447C0.0484547 85.6328 1.63257 89.1756 4.98595 90.4639C8.33934 91.7522 12.1865 90.2934 13.5854 87.2053L20.1276 72.75H60.7386L67.2807 87.2053C68.6797 90.2934 72.5268 91.7522 75.8802 90.4639C79.2336 89.1756 80.8177 85.6328 79.4188 82.5447L71.1896 64.3572L46.5021 9.79473ZM55.2456 60.625H25.6206L40.4331 27.8875L55.2456 60.625Z" fill="#2E7A48"/>
</g>
<defs>
<clipPath id="clip0_2611_6426">
<rect width="78" height="97" fill="white" transform="translate(10.9336)"/>
</clipPath>
<clipPath id="clip1_2611_6426">
<rect width="79" height="97" fill="white" transform="translate(0.933594)"/>
</clipPath>
</defs>
</svg>
