<svg width="62" height="86" viewBox="0 0 62 86" fill="none" xmlns="http://www.w3.org/2000/svg">
<path d="M15.0497 6.14258C8.65455 6.14258 3.45508 11.2584 3.45508 17.5507V46.0712V80.2956C3.45508 83.4507 6.04576 85.9997 9.2524 85.9997C12.459 85.9997 15.0497 83.4507 15.0497 80.2956V51.7752H44.0363C47.243 51.7752 49.8337 49.2262 49.8337 46.0712C49.8337 42.9161 47.243 40.3671 44.0363 40.3671H15.0497V17.5507H55.631C58.8376 17.5507 61.4283 15.0017 61.4283 11.8467C61.4283 8.69159 58.8376 6.14258 55.631 6.14258H15.0497Z" fill="#AFE893"/>
<path d="M12.2857 0C5.50938 0 0 5.50938 0 12.2857V43V79.8571C0 83.2549 2.74509 86 6.14286 86C9.54063 86 12.2857 83.2549 12.2857 79.8571V49.1429H43C46.3978 49.1429 49.1429 46.3978 49.1429 43C49.1429 39.6022 46.3978 36.8571 43 36.8571H12.2857V12.2857H55.2857C58.6835 12.2857 61.4286 9.54063 61.4286 6.14286C61.4286 2.74509 58.6835 0 55.2857 0H12.2857Z" fill="#2E7A48"/>
</svg>
