<svg width="94" height="97" viewBox="0 0 94 97" fill="none" xmlns="http://www.w3.org/2000/svg">
<g clip-path="url(#clip0_2698_6482)">
<path fill-rule="evenodd" clip-rule="evenodd" d="M39.7286 5C38.929 5 38.1621 5.32736 37.5967 5.91006C37.0313 6.49276 36.7136 7.28308 36.7136 8.10714V32.9643H12.5932C11.7935 32.9643 11.0266 33.2916 10.4612 33.8743C9.89578 34.4571 9.57812 35.2474 9.57812 36.0714V60.9286C9.57813 61.7526 9.89578 62.543 10.4612 63.1257C11.0266 63.7084 11.7935 64.0357 12.5932 64.0357H36.7136V88.8929C36.7136 89.7169 37.0313 90.5072 37.5967 91.0899C38.1621 91.6726 38.929 92 39.7286 92H63.8491C64.6487 92 65.4156 91.6726 65.981 91.0899C66.5465 90.5072 66.8641 89.7169 66.8641 88.8929V64.0357H90.9845C91.7842 64.0357 92.5511 63.7084 93.1165 63.1257C93.6819 62.543 93.9996 61.7526 93.9996 60.9286V36.0714C93.9996 35.2474 93.6819 34.4571 93.1165 33.8743C92.5511 33.2916 91.7842 32.9643 90.9845 32.9643H66.8641V8.10714C66.8641 7.28308 66.5465 6.49276 65.981 5.91006C65.4156 5.32736 64.6487 5 63.8491 5H39.7286Z" fill="#40BF00"/>
</g>
<g clip-path="url(#clip1_2698_6482)">
<path fill-rule="evenodd" clip-rule="evenodd" d="M30.1505 5C29.3509 5 28.584 5.32736 28.0186 5.91006C27.4531 6.49276 27.1355 7.28308 27.1355 8.10714V32.9643H3.01505C2.21541 32.9643 1.44852 33.2916 0.883088 33.8743C0.317656 34.4571 0 35.2474 0 36.0714L0 60.9286C0 61.7526 0.317656 62.543 0.883088 63.1257C1.44852 63.7084 2.21541 64.0357 3.01505 64.0357H27.1355V88.8929C27.1355 89.7169 27.4531 90.5072 28.0186 91.0899C28.584 91.6726 29.3509 92 30.1505 92H54.2709C55.0706 92 55.8375 91.6726 56.4029 91.0899C56.9683 90.5072 57.286 89.7169 57.286 88.8929V64.0357H81.4064C82.2061 64.0357 82.9729 63.7084 83.5384 63.1257C84.1038 62.543 84.4215 61.7526 84.4215 60.9286V36.0714C84.4215 35.2474 84.1038 34.4571 83.5384 33.8743C82.9729 33.2916 82.2061 32.9643 81.4064 32.9643H57.286V8.10714C57.286 7.28308 56.9683 6.49276 56.4029 5.91006C55.8375 5.32736 55.0706 5 54.2709 5H30.1505Z" fill="white"/>
</g>
<defs>
<clipPath id="clip0_2698_6482">
<rect width="84.4215" height="87" fill="white" transform="translate(9.57812 5)"/>
</clipPath>
<clipPath id="clip1_2698_6482">
<rect width="84.4215" height="87" fill="white" transform="translate(0 5)"/>
</clipPath>
</defs>
</svg>
