<svg width="190" height="179" viewBox="0 0 190 179" fill="none" xmlns="http://www.w3.org/2000/svg">
<path d="M42.2222 179V159.111H84.4444V128.283C75.8241 126.46 68.1291 123.023 61.3594 117.971C54.5898 112.919 49.6181 106.578 46.4444 98.9472C33.25 97.4556 22.2124 92.0292 13.3317 82.6682C4.45093 73.3071 0.00703704 62.3252 0 49.7222V39.7778C0 34.3083 2.06889 29.6278 6.20667 25.7362C10.3444 21.8446 15.3126 19.8955 21.1111 19.8889H42.2222V0H147.778V19.8889H168.889C174.694 19.8889 179.666 21.838 183.804 25.7362C187.942 29.6344 190.007 34.315 190 39.7778V49.7222C190 62.3185 185.556 73.3005 176.668 82.6682C167.781 92.0358 156.743 97.4622 143.556 98.9472C140.389 106.571 135.421 112.913 128.651 117.971C121.881 123.029 114.183 126.467 105.556 128.283V159.111H147.778V179H42.2222ZM42.2222 77.5667V39.7778H21.1111V49.7222C21.1111 56.0204 23.0463 61.6987 26.9167 66.7571C30.787 71.8155 35.8889 75.4187 42.2222 77.5667ZM147.778 77.5667C154.111 75.412 159.213 71.8055 163.083 66.7471C166.954 61.6887 168.889 56.0137 168.889 49.7222V39.7778H147.778V77.5667Z" fill="#FFCE51"/>
</svg>
