<svg width="94" height="91" viewBox="0 0 94 91" fill="none" xmlns="http://www.w3.org/2000/svg">
<g clip-path="url(#clip0_3194_8510)">
<path fill-rule="evenodd" clip-rule="evenodd" d="M28.4 0.500003C24.2891 0.500003 20.3467 2.08036 17.4398 4.8934C14.533 7.70645 12.9 11.5218 12.9 15.5V17.216C12.9 19.904 13.7246 22.406 15.1444 24.5H9.8C7.33349 24.5 4.968 25.4482 3.22391 27.136C1.47982 28.8239 0.5 31.1131 0.5 33.5L0.5 39.5C0.5 41.887 1.47982 44.1761 3.22391 45.864C4.968 47.5518 7.33349 48.5 9.8 48.5H43.9V24H50.1V48.5H84.2C86.6665 48.5 89.032 47.5518 90.7761 45.864C92.5202 44.1761 93.5 41.887 93.5 39.5V33.5C93.5 31.1131 92.5202 28.8239 90.7761 27.136C89.032 25.4482 86.6665 24.5 84.2 24.5H78.8556C80.2754 22.406 81.1 19.904 81.1 17.216V15.5C81.1 11.5218 79.467 7.70645 76.5602 4.8934C73.6533 2.08036 69.7109 0.500003 65.6 0.500003C57.7074 0.500003 50.7944 4.58 47 10.676C45.0711 7.5703 42.3442 5.00078 39.0848 3.21753C35.8253 1.43429 32.1443 0.498069 28.4 0.500003ZM50.1 24H67.5C71.654 24 74.9 21.236 74.9 17.216V15.5C74.9 13.1131 73.9202 10.8239 72.1761 9.13604C70.432 7.44821 68.0665 6.5 65.6 6.5C61.4891 6.5 57.5467 8.08036 54.6398 10.8934C51.733 13.7064 50.1 17.5218 50.1 21.5V24ZM43.9 24H26.5C22.346 24 19.1 21.236 19.1 17.216V15.5C19.1 13.1131 20.0798 10.8239 21.8239 9.13604C23.568 7.44821 25.9335 6.5 28.4 6.5C30.4355 6.5 32.451 6.88799 34.3316 7.64181C36.2121 8.39563 37.9208 9.50052 39.3602 10.8934C40.7995 12.2863 41.9412 13.9399 42.7201 15.7598C43.4991 17.5796 43.9 19.5302 43.9 21.5V24Z" fill="#FFD233"/>
<path d="M43.9002 54.5H6.5V75.5C6.5 79.4782 8.3332 83.2936 11.24 86.1066C14.1468 88.9196 18.0893 90.5 22.2002 90.5H43.9002V54.5ZM50.1002 90.5H71.8002C75.911 90.5 79.8535 88.9196 82.7603 86.1066C85.6671 83.2936 87.5 79.4782 87.5 75.5V54.5H50.1002V90.5Z" fill="#FFD233"/>
<rect x="43.5" y="24" width="7" height="67" fill="#FF0000"/>
<rect width="7" height="81" transform="matrix(0 -1 -1 0 87.5 55)" fill="#FF0000"/>
</g>
<defs>
<clipPath id="clip0_3194_8510">
<rect width="93" height="90" fill="white" transform="translate(0.5 0.5)"/>
</clipPath>
</defs>
</svg>
