<svg width="104" height="97" viewBox="0 0 104 97" fill="none" xmlns="http://www.w3.org/2000/svg">
<path d="M25.1875 12.125H85.8125C92.4994 12.125 97.9375 17.5631 97.9375 24.25V60.625C97.9375 67.3119 92.4994 72.75 85.8125 72.75H47.1337C49.7511 70.4959 51.853 67.705 53.2965 64.5669C54.74 61.4287 55.4916 58.0167 55.5 54.5625C55.4916 51.1083 54.74 47.6963 53.2965 44.5581C51.853 41.42 49.7511 38.6291 47.1337 36.375H76.7188C77.5227 36.375 78.2937 36.0556 78.8622 35.4872C79.4306 34.9187 79.75 34.1477 79.75 33.3438C79.75 32.5398 79.4306 31.7688 78.8622 31.2003C78.2937 30.6319 77.5227 30.3125 76.7188 30.3125H31.25C27.7958 30.3209 24.3838 31.0725 21.2456 32.516C18.1075 33.9595 15.3166 36.0614 13.0625 38.6788V24.25C13.0625 17.5631 18.5006 12.125 25.1875 12.125ZM64.5938 54.5625H76.7188C77.5227 54.5625 78.2937 54.2431 78.8622 53.6747C79.4306 53.1062 79.75 52.3352 79.75 51.5312C79.75 50.7273 79.4306 49.9563 78.8622 49.3878C78.2937 48.8194 77.5227 48.5 76.7188 48.5H64.5938C63.7898 48.5 63.0188 48.8194 62.4503 49.3878C61.8819 49.9563 61.5625 50.7273 61.5625 51.5312C61.5625 52.3352 61.8819 53.1062 62.4503 53.6747C63.0188 54.2431 63.7898 54.5625 64.5938 54.5625ZM31.25 72.75C36.0736 72.75 40.6997 70.8338 44.1105 67.423C47.5213 64.0122 49.4375 59.3861 49.4375 54.5625C49.4375 49.7389 47.5213 45.1128 44.1105 41.702C40.6997 38.2912 36.0736 36.375 31.25 36.375C26.4264 36.375 21.8003 38.2912 18.3895 41.702C14.9787 45.1128 13.0625 49.7389 13.0625 54.5625C13.0625 59.3861 14.9787 64.0122 18.3895 67.423C21.8003 70.8338 26.4264 72.75 31.25 72.75ZM19.125 87.9062V75.4357C22.7949 77.6177 26.9805 78.7813 31.25 78.8064C35.6877 78.8064 39.7921 77.5212 43.375 75.4357V87.9002C43.372 88.4483 43.2219 88.9855 42.9403 89.4558C42.6588 89.9261 42.2562 90.3122 41.7745 90.5737C41.291 90.8317 40.7469 90.9544 40.1995 90.9288C39.652 90.9032 39.1217 90.7303 38.6644 90.4283L31.25 85.4813L23.8356 90.4222C23.3809 90.7322 22.85 90.9119 22.3005 90.9416C21.751 90.9713 21.2039 90.8499 20.7184 90.5906C20.233 90.3313 19.8279 89.9441 19.547 89.4709C19.2661 88.9977 19.1201 88.4565 19.125 87.9062Z" fill="#AFE893"/>
<path d="M18.1875 12.125H78.8125C85.4994 12.125 90.9375 17.5631 90.9375 24.25V60.625C90.9375 67.3119 85.4994 72.75 78.8125 72.75H40.1337C42.7511 70.4959 44.853 67.705 46.2965 64.5669C47.74 61.4287 48.4916 58.0167 48.5 54.5625C48.4916 51.1083 47.74 47.6963 46.2965 44.5581C44.853 41.42 42.7511 38.6291 40.1337 36.375H69.7188C70.5227 36.375 71.2937 36.0556 71.8622 35.4872C72.4306 34.9187 72.75 34.1477 72.75 33.3438C72.75 32.5398 72.4306 31.7688 71.8622 31.2003C71.2937 30.6319 70.5227 30.3125 69.7188 30.3125H24.25C20.7958 30.3209 17.3838 31.0725 14.2456 32.516C11.1075 33.9595 8.31662 36.0614 6.0625 38.6788V24.25C6.0625 17.5631 11.5006 12.125 18.1875 12.125ZM57.5938 54.5625H69.7188C70.5227 54.5625 71.2937 54.2431 71.8622 53.6747C72.4306 53.1062 72.75 52.3352 72.75 51.5312C72.75 50.7273 72.4306 49.9563 71.8622 49.3878C71.2937 48.8194 70.5227 48.5 69.7188 48.5H57.5938C56.7898 48.5 56.0188 48.8194 55.4503 49.3878C54.8819 49.9563 54.5625 50.7273 54.5625 51.5312C54.5625 52.3352 54.8819 53.1062 55.4503 53.6747C56.0188 54.2431 56.7898 54.5625 57.5938 54.5625ZM24.25 72.75C29.0736 72.75 33.6997 70.8338 37.1105 67.423C40.5213 64.0122 42.4375 59.3861 42.4375 54.5625C42.4375 49.7389 40.5213 45.1128 37.1105 41.702C33.6997 38.2912 29.0736 36.375 24.25 36.375C19.4264 36.375 14.8003 38.2912 11.3895 41.702C7.97868 45.1128 6.0625 49.7389 6.0625 54.5625C6.0625 59.3861 7.97868 64.0122 11.3895 67.423C14.8003 70.8338 19.4264 72.75 24.25 72.75ZM12.125 87.9062V75.4357C15.7949 77.6177 19.9805 78.7813 24.25 78.8064C28.6877 78.8064 32.7921 77.5212 36.375 75.4357V87.9002C36.372 88.4483 36.2219 88.9855 35.9403 89.4558C35.6588 89.9261 35.2562 90.3122 34.7745 90.5737C34.291 90.8317 33.7469 90.9544 33.1995 90.9288C32.652 90.9032 32.1217 90.7303 31.6644 90.4283L24.25 85.4813L16.8356 90.4222C16.3809 90.7322 15.85 90.9119 15.3005 90.9416C14.751 90.9713 14.2039 90.8499 13.7184 90.5906C13.233 90.3313 12.8279 89.9441 12.547 89.4709C12.2661 88.9977 12.1201 88.4565 12.125 87.9062Z" fill="#2E7A48"/>
</svg>
