<svg width="80" height="87" viewBox="0 0 80 87" fill="none" xmlns="http://www.w3.org/2000/svg">
<path d="M8.29129 0.485289C11.4567 -0.835246 15.0882 0.660066 16.4087 3.82547L41.7513 64.6283L67.0939 3.82547C68.4145 0.660066 72.0459 -0.835246 75.2113 0.485289C78.3767 1.80582 79.8721 5.4373 78.5515 8.6027L47.4801 83.1741C46.5091 85.485 44.2565 86.9998 41.7513 86.9998C39.2462 86.9998 36.9741 85.485 36.0225 83.1741L4.95111 8.6027C3.63057 5.4373 5.12589 1.80582 8.29129 0.485289Z" fill="#AFE893"/>
<path d="M3.82058 0.480406C6.98598 -0.840129 10.6175 0.655183 11.938 3.82058L37.2806 64.6235L62.6232 3.82058C63.9438 0.655183 67.5752 -0.840129 70.7406 0.480406C73.906 1.80094 75.4014 5.43241 74.0808 8.59781L43.0094 83.1692C42.0384 85.4801 39.7857 86.9949 37.2806 86.9949C34.7755 86.9949 32.5034 85.4801 31.5518 83.1692L0.480406 8.59781C-0.840129 5.43241 0.655183 1.80094 3.82058 0.480406Z" fill="#2E7A48"/>
</svg>
