<svg width="146" height="146" viewBox="0 0 146 146" fill="none" xmlns="http://www.w3.org/2000/svg">
<rect x="3" y="3" width="140" height="140" rx="70" fill="#FFF1CC"/>
<rect x="3" y="3" width="140" height="140" rx="70" stroke="#FFCE51" stroke-width="6"/>
<path d="M36.525 56.675V44.75H57.3V99.5H43.95V56.675H36.525ZM104.623 55.925H81.2232V66.275C82.2232 65.175 83.6232 64.275 85.4232 63.575C87.2232 62.875 89.1732 62.525 91.2732 62.525C95.0232 62.525 98.1232 63.375 100.573 65.075C103.073 66.775 104.898 68.975 106.048 71.675C107.198 74.375 107.773 77.3 107.773 80.45C107.773 86.3 106.123 90.95 102.823 94.4C99.5232 97.8 94.8732 99.5 88.8732 99.5C84.8732 99.5 81.3982 98.825 78.4482 97.475C75.4982 96.075 73.2232 94.15 71.6232 91.7C70.0232 89.25 69.1482 86.425 68.9982 83.225H81.5232C81.8232 84.775 82.5482 86.075 83.6982 87.125C84.8482 88.125 86.4232 88.625 88.4232 88.625C90.7732 88.625 92.5232 87.875 93.6732 86.375C94.8232 84.875 95.3982 82.875 95.3982 80.375C95.3982 77.925 94.7982 76.05 93.5982 74.75C92.3982 73.45 90.6482 72.8 88.3482 72.8C86.6482 72.8 85.2482 73.225 84.1482 74.075C83.0482 74.875 82.3232 75.95 81.9732 77.3H69.5982V44.675H104.623V55.925Z" fill="#FFCE51"/>
</svg>
