<svg width="146" height="146" viewBox="0 0 146 146" fill="none" xmlns="http://www.w3.org/2000/svg">
<rect x="3" y="3" width="140" height="140" rx="70" fill="#FFF1CC"/>
<rect x="3" y="3" width="140" height="140" rx="70" stroke="#FFCE51" stroke-width="6"/>
<path d="M36.025 56.675V44.75H56.8V99.5H43.45V56.675H36.025ZM65.5732 71.375C65.5732 62.775 67.2232 56 70.5232 51.05C73.8732 46.1 79.2482 43.625 86.6482 43.625C94.0482 43.625 99.3982 46.1 102.698 51.05C106.048 56 107.723 62.775 107.723 71.375C107.723 80.075 106.048 86.9 102.698 91.85C99.3982 96.8 94.0482 99.275 86.6482 99.275C79.2482 99.275 73.8732 96.8 70.5232 91.85C67.2232 86.9 65.5732 80.075 65.5732 71.375ZM95.1232 71.375C95.1232 66.325 94.5732 62.45 93.4732 59.75C92.3732 57 90.0982 55.625 86.6482 55.625C83.1982 55.625 80.9232 57 79.8232 59.75C78.7232 62.45 78.1732 66.325 78.1732 71.375C78.1732 74.775 78.3732 77.6 78.7732 79.85C79.1732 82.05 79.9732 83.85 81.1732 85.25C82.4232 86.6 84.2482 87.275 86.6482 87.275C89.0482 87.275 90.8482 86.6 92.0482 85.25C93.2982 83.85 94.1232 82.05 94.5232 79.85C94.9232 77.6 95.1232 74.775 95.1232 71.375Z" fill="#FFCE51"/>
</svg>
