<svg width="146" height="146" viewBox="0 0 146 146" fill="none" xmlns="http://www.w3.org/2000/svg">
<rect x="3" y="3" width="140" height="140" rx="70" fill="#FFF1CC"/>
<rect x="3" y="3" width="140" height="140" rx="70" stroke="#FFCE51" stroke-width="6"/>
<path d="M90.425 55.925H67.025V66.275C68.025 65.175 69.425 64.275 71.225 63.575C73.025 62.875 74.975 62.525 77.075 62.525C80.825 62.525 83.925 63.375 86.375 65.075C88.875 66.775 90.7 68.975 91.85 71.675C93 74.375 93.575 77.3 93.575 80.45C93.575 86.3 91.925 90.95 88.625 94.4C85.325 97.8 80.675 99.5 74.675 99.5C70.675 99.5 67.2 98.825 64.25 97.475C61.3 96.075 59.025 94.15 57.425 91.7C55.825 89.25 54.95 86.425 54.8 83.225H67.325C67.625 84.775 68.35 86.075 69.5 87.125C70.65 88.125 72.225 88.625 74.225 88.625C76.575 88.625 78.325 87.875 79.475 86.375C80.625 84.875 81.2 82.875 81.2 80.375C81.2 77.925 80.6 76.05 79.4 74.75C78.2 73.45 76.45 72.8 74.15 72.8C72.45 72.8 71.05 73.225 69.95 74.075C68.85 74.875 68.125 75.95 67.775 77.3H55.4V44.675H90.425V55.925Z" fill="#FFCE51"/>
</svg>
