<svg width="146" height="146" viewBox="0 0 146 146" fill="none" xmlns="http://www.w3.org/2000/svg">
<rect x="3" y="3" width="140" height="140" rx="70" fill="#FFF1CC"/>
<rect x="3" y="3" width="140" height="140" rx="70" stroke="#FFCE51" stroke-width="6"/>
<path d="M29.925 89.225C31.625 87.875 32.4 87.25 32.25 87.35C37.15 83.3 41 79.975 43.8 77.375C46.65 74.775 49.05 72.05 51 69.2C52.95 66.35 53.925 63.575 53.925 60.875C53.925 58.825 53.45 57.225 52.5 56.075C51.55 54.925 50.125 54.35 48.225 54.35C46.325 54.35 44.825 55.075 43.725 56.525C42.675 57.925 42.15 59.925 42.15 62.525H29.775C29.875 58.275 30.775 54.725 32.475 51.875C34.225 49.025 36.5 46.925 39.3 45.575C42.15 44.225 45.3 43.55 48.75 43.55C54.7 43.55 59.175 45.075 62.175 48.125C65.225 51.175 66.75 55.15 66.75 60.05C66.75 65.4 64.925 70.375 61.275 74.975C57.625 79.525 52.975 83.975 47.325 88.325H67.575V98.75H29.925V89.225ZM73.2217 71.375C73.2217 62.775 74.8717 56 78.1717 51.05C81.5217 46.1 86.8967 43.625 94.2967 43.625C101.697 43.625 107.047 46.1 110.347 51.05C113.697 56 115.372 62.775 115.372 71.375C115.372 80.075 113.697 86.9 110.347 91.85C107.047 96.8 101.697 99.275 94.2967 99.275C86.8967 99.275 81.5217 96.8 78.1717 91.85C74.8717 86.9 73.2217 80.075 73.2217 71.375ZM102.772 71.375C102.772 66.325 102.222 62.45 101.122 59.75C100.022 57 97.7467 55.625 94.2967 55.625C90.8467 55.625 88.5717 57 87.4717 59.75C86.3717 62.45 85.8217 66.325 85.8217 71.375C85.8217 74.775 86.0217 77.6 86.4217 79.85C86.8217 82.05 87.6217 83.85 88.8217 85.25C90.0717 86.6 91.8967 87.275 94.2967 87.275C96.6967 87.275 98.4967 86.6 99.6967 85.25C100.947 83.85 101.772 82.05 102.172 79.85C102.572 77.6 102.772 74.775 102.772 71.375Z" fill="#FFCE51"/>
</svg>
