<svg width="146" height="146" viewBox="0 0 146 146" fill="none" xmlns="http://www.w3.org/2000/svg">
<rect x="3" y="3" width="140" height="140" rx="70" fill="#FFF1CC"/>
<rect x="3" y="3" width="140" height="140" rx="70" stroke="#FFCE51" stroke-width="6"/>
<path d="M42.667 84.4994C42.667 69.6797 55.7623 57.666 71.917 57.666H74.0837C90.2383 57.666 103.334 69.6797 103.334 84.4994C103.334 99.319 90.2383 111.333 74.0837 111.333H71.917C55.7623 111.333 42.667 99.319 42.667 84.4994Z" stroke="#FFD233" stroke-width="6" stroke-linecap="round" stroke-linejoin="round"/>
<path d="M75.1667 95.9993V76.6333C75.1667 74.433 75.1667 73.329 74.17 73.0568C71.973 72.455 68.6667 76.8288 68.6667 76.8288M75.1667 95.9993L68.6667 95.9955M75.1667 95.9993L81.6667 95.9955M79.76 34.666L68.6667 57.275M99 34.666L86.7757 59.5827M66.24 34.666L73 48.443M47 34.666L59.2243 59.5827" stroke="#FFD233" stroke-width="6" stroke-linecap="round" stroke-linejoin="round"/>
</svg>
